<svg width="54" height="38" viewBox="0 0 54 38" fill="none" xmlns="http://www.w3.org/2000/svg">
<path fill-rule="evenodd" clip-rule="evenodd" d="M38.3088 31.8532C37.5016 33.802 37.0861 35.8907 37.0861 38L42.5943 38C42.5943 36.614 42.8673 35.2416 43.3977 33.9611C43.9281 32.6806 44.7055 31.5171 45.6855 30.5371C46.6656 29.557 47.829 28.7796 49.1095 28.2492C50.39 27.7188 51.7624 27.4458 53.1484 27.4458L53.1484 21.9377C51.0391 21.9377 48.9504 22.3531 47.0016 23.1603C45.0529 23.9675 43.2822 25.1507 41.7907 26.6422C40.2991 28.1337 39.116 29.9044 38.3088 31.8532ZM53.1456 21.6179L0.00264978 21.6179L0.00264932 16.3824L53.1456 16.3824L53.1456 21.6179ZM37.0854 0.000138733C37.0854 2.10947 37.5009 4.19815 38.3081 6.14692C39.1153 8.0957 40.2984 9.8664 41.79 11.3579C43.2815 12.8494 45.0522 14.0326 47.001 14.8398C48.9497 15.647 51.0384 16.0625 53.1478 16.0625L53.1478 10.5543C51.7618 10.5543 50.3893 10.2813 49.1089 9.75091C47.8284 9.22052 46.6649 8.4431 45.6848 7.46306C44.7048 6.48301 43.9274 5.31953 43.397 4.03904C42.8666 2.75855 42.5936 1.38613 42.5936 0.000138252L37.0854 0.000138733Z" fill="white"/>
</svg>
