<svg width="30" height="39" viewBox="0 0 30 39" fill="none" xmlns="http://www.w3.org/2000/svg">
<path fill-rule="evenodd" clip-rule="evenodd" d="M21.8844 17.9773C22.1352 18.3576 22.3411 18.7597 22.5015 19.1761V8.38481C22.5015 4.42801 25.7091 1.22039 29.6659 1.22039V16.6106C29.6659 20.5674 26.4583 23.7751 22.5015 23.7751V23.6854C22.49 23.7153 22.4783 23.7451 22.4663 23.7749L14.3005 11.239C12.2843 8.1439 11.0328 4.61384 10.649 0.939941L21.8844 17.9773ZM0 20.3105C0 16.3537 3.20762 13.1461 7.16442 13.1461V13.2357C7.17594 13.2058 7.18769 13.176 7.19968 13.1462L15.3655 25.6821C17.3816 28.7772 18.6332 32.3073 19.017 35.9812L7.78156 18.9439C7.53077 18.5636 7.32481 18.1614 7.16442 17.745V28.5363C7.16442 32.4931 3.9568 35.7007 0 35.7007V20.3105ZM5.87296 3.32809C5.86229 6.53625 6.83433 9.67074 8.65835 12.3099L26.9333 38.7523C26.5501 35.0839 25.2561 31.5696 23.169 28.5286L5.87296 3.32809Z" fill="white"/>
</svg>
